<?xml version="1.0" encoding="UTF-8"?>
<svg width="590px" height="242px" viewBox="0 0 590 242" version="1.1" xmlns="http://www.w3.org/2000/svg" xmlns:xlink="http://www.w3.org/1999/xlink">
    <!-- Generator: Sketch 51.2 (57519) - http://www.bohemiancoding.com/sketch -->
    <title>Richdata</title>
    <desc>Created with Sketch.</desc>
    <defs>
        <rect id="path-1" x="0" y="0.919117647" width="589.171615" height="345.588235"></rect>
    </defs>
    <g id="Events" stroke="none" stroke-width="1" fill="none" fill-rule="evenodd">
        <g id="Assets" transform="translate(-784.000000, -573.000000)">
            <g id="Richdata" transform="translate(784.000000, 467.000000)">
                <g id="Line-graph">
                    <g transform="translate(0.411436, 0.845588)">
                        <mask id="mask-2" fill="white">
                            <use xlink:href="#path-1"></use>
                        </mask>
                        <g id="Rectangle-1"></g>
                        <path d="M-33.0376607,280.607211 C-33.0376607,280.607211 72.7874032,180.260737 119.820765,184.898599 C166.854126,189.536461 327.691427,276.812597 408.739986,280.607212 C489.788547,284.401826 630.468691,285.245075 630.468691,285.245075 L625.849343,356.499503 L-30.5180163,360.294118 L-33.0376607,280.607211 Z" id="Path-19" fill="#F0F0F0" style="mix-blend-mode: multiply;" mask="url(#mask-2)" transform="translate(298.715515, 272.518382) scale(-1, 1) translate(-298.715515, -272.518382) "></path>
                        <path d="M-27.5313839,288.733773 C-27.5313839,288.733773 109.375688,111.750825 183.288711,105.837315 C257.201733,99.9238039 364.711583,284.932228 445.76393,288.733771 C526.816277,292.535313 627.723087,193.362478 627.723087,193.362478 L631.386404,364.764633 L-25.0116218,368.566176 L-27.5313839,288.733773 Z" id="Path-19-copy" fill="#F0F0F0" style="mix-blend-mode: multiply;" mask="url(#mask-2)"></path>
                        <path d="M-131.23293,294.206308 C-131.23293,294.206308 25.3587093,111.21323 126.860195,111.213235 C228.361681,111.21324 283.878043,287.356475 337.291511,290.781393 C365.035728,292.560375 513.513899,165.620734 563.142161,165.62074 C612.770423,165.620747 670.951861,198.784633 670.951861,198.784633 L675.436618,370.277331 L-128.148152,374.080882 L-131.23293,294.206308 Z" id="Path-19-copy-2" fill="#F0F0F0" style="mix-blend-mode: multiply;" mask="url(#mask-2)"></path>
                        <path d="M-14.6834047,282.33159 C-14.6834047,282.33159 278.415755,181.712063 352.42645,175.818034 C426.437142,169.924003 411.298593,263.688225 492.458044,267.477245 C573.617497,271.266264 720.797851,189.290106 720.797851,189.290106 L765.372472,354.743972 L-14.6834047,359.375 L-14.6834047,282.33159 Z" id="Path-19-copy" fill="#F0F0F0" style="mix-blend-mode: multiply;" mask="url(#mask-2)"></path>
                    </g>
                </g>
            </g>
        </g>
    </g>
</svg>